# xmcd CD database file
#
# Track frame offsets:
#	182
#	17695
#	32330
#	56535
#
# Disc length: 966 seconds
#
# Revision: 0
# Processed by: cddbd v1.4PL0 Copyright (c) Steve Scherf et al.
# Submitted via: CDex 1.40Release
#
DISCID=2303c404
DTITLE=Sixteen Horsepower - Black Soul Choir
DYEAR=1996
DGENRE=Country
TTITLE0=Black Soul Choir
TTITLE1=Dead Run
TTITLE2=South Pennsylvania Waltz
TTITLE3=American Wheeze
EXTD=YEAR: 1996 ID3G: 2
EXTT0=
EXTT1=
EXTT2=
EXTT3=
PLAYORDER=
